name C:\Users\r0593348\3dpredictsim\Results\MidTarsalJoint\Fal_s1_bCst_PF_Natali2010_ls150_MT_k250_MTP_T2_ig24.mot
datacolumns 128
datarows 4
range 0.57207891 0.60640365
endheader
time	pelvis_tilt	pelvis_list	pelvis_rotation	pelvis_tx	pelvis_ty	pelvis_tz	hip_flexion_l	hip_adduction_l	hip_rotation_l	hip_flexion_r	hip_adduction_r	hip_rotation_r	knee_angle_l	knee_angle_r	ankle_angle_l	ankle_angle_r	subtalar_angle_l	subtalar_angle_r	mtj_angle_l	mtj_angle_r	mtp_angle_l	mtp_angle_r	lumbar_extension	lumbar_bending	lumbar_rotation	arm_flex_l	arm_add_l	arm_rot_l	arm_flex_r	arm_add_r	arm_rot_r	elbow_flex_l	elbow_flex_r	pro_sup_l	pro_sup_r	glut_med1_l/activation	glut_med2_l/activation	glut_med3_l/activation	glut_min1_l/activation	glut_min2_l/activation	glut_min3_l/activation	semimem_l/activation	semiten_l/activation	bifemlh_l/activation	bifemsh_l/activation	sar_l/activation	add_long_l/activation	add_brev_l/activation	add_mag1_l/activation	add_mag2_l/activation	add_mag3_l/activation	tfl_l/activation	pect_l/activation	grac_l/activation	glut_max1_l/activation	glut_max2_l/activation	glut_max3_l/activation	iliacus_l/activation	psoas_l/activation	quad_fem_l/activation	gem_l/activation	peri_l/activation	rect_fem_l/activation	vas_med_l/activation	vas_int_l/activation	vas_lat_l/activation	med_gas_l/activation	lat_gas_l/activation	soleus_l/activation	tib_post_l/activation	flex_dig_l/activation	flex_hal_l/activation	tib_ant_l/activation	per_brev_l/activation	per_long_l/activation	per_tert_l/activation	ext_dig_l/activation	ext_hal_l/activation	ercspn_l/activation	intobl_l/activation	extobl_l/activation	glut_med1_r/activation	glut_med2_r/activation	glut_med3_r/activation	glut_min1_r/activation	glut_min2_r/activation	glut_min3_r/activation	semimem_r/activation	semiten_r/activation	bifemlh_r/activation	bifemsh_r/activation	sar_r/activation	add_long_r/activation	add_brev_r/activation	add_mag1_r/activation	add_mag2_r/activation	add_mag3_r/activation	tfl_r/activation	pect_r/activation	grac_r/activation	glut_max1_r/activation	glut_max2_r/activation	glut_max3_r/activation	iliacus_r/activation	psoas_r/activation	quad_fem_r/activation	gem_r/activation	peri_r/activation	rect_fem_r/activation	vas_med_r/activation	vas_int_r/activation	vas_lat_r/activation	med_gas_r/activation	lat_gas_r/activation	soleus_r/activation	tib_post_r/activation	flex_dig_r/activation	flex_hal_r/activation	tib_ant_r/activation	per_brev_r/activation	per_long_r/activation	per_tert_r/activation	ext_dig_r/activation	ext_hal_r/activation	ercspn_r/activation	intobl_r/activation	extobl_r/activation	
          0.57207891	         -2.92874986	          2.22214810	         -5.83446794	          0.71509864	          0.91827924	          0.00182583	         28.48270797	          3.69707133	         -2.91670570	        -16.56586539	         -1.39226097	          6.87114989	        -10.91324841	        -10.58862599	          4.49116303	         -3.27647665	         -3.75141045	         10.20859887	         -0.12127478	          4.04527077	         -0.90744494	         13.35628690	         -1.88454426	         -0.55674987	          2.20539267	         -5.71119021	        -13.44971153	          7.01533299	          4.77971133	        -13.46599689	         17.38089131	         15.65150966	         36.24675137	         86.51662706	         86.51662706	          0.05000000	          0.05000002	          0.11116198	          0.05000004	          0.05000004	          0.05000004	          0.13434795	          0.07056138	          0.16634605	          0.05407751	          0.05953736	          0.14248437	          0.31988550	          0.34236517	          0.21356921	          0.10713727	          0.05000022	          0.07302762	          0.15002290	          0.05000244	          0.09374951	          0.13400132	          0.05000012	          0.05953503	          0.57310378	          0.24636414	          0.11270626	          0.05953490	          0.11305361	          0.11957561	          0.09811294	          0.06763764	          0.07088722	          0.05953521	          0.05953428	          0.05000138	          0.05953366	          0.49107344	          0.30419040	          0.19913075	          0.12679450	          0.41025709	          0.18203994	          0.05000000	          0.09675778	          0.08286092	          0.21053637	          0.08440539	          0.05953509	          0.23835125	          0.16447785	          0.08734670	          0.05000173	          0.05000058	          0.05000105	          0.05000007	          0.09276002	          0.17660326	          0.05953504	          0.05953519	          0.05953503	          0.05953487	          0.26199483	          0.07678322	          0.05002431	          0.05001648	          0.05350788	          0.05953474	          0.33853823	          0.58972578	          0.05953503	          0.05953569	          0.05762077	          0.21846709	          0.13521379	          0.13138043	          0.13183956	          0.22934146	          0.31199542	          0.28023941	          0.21823402	          0.20027290	          0.26759643	          0.05000001	          0.05000009	          0.13630382	          0.05000006	          0.05000002	          0.05000009	          0.06443256	          0.07078172	          0.06315463	
          0.58352049	         -2.92267286	          2.30594106	         -6.06921137	          0.73279329	          0.91744477	          0.00166119	         27.68821052	          3.96417060	         -2.65361241	        -16.41273149	         -1.69079125	          6.69387001	        -11.41256526	        -12.51697988	          3.93709906	         -3.97095173	         -4.13975716	         11.20346907	         -0.24067602	          2.84209484	         -0.88750450	         15.45759543	         -1.65601056	         -0.76384233	          2.26656082	         -6.64448404	        -13.45612669	          6.81707915	          4.35814201	        -13.47388914	         17.55834256	         15.33633957	         37.44427874	         86.51662706	         86.51662706	          0.25029768	          0.25694225	          0.30824726	          0.42222947	          0.26182498	          0.23463139	          0.11458093	          0.05926197	          0.13970536	          0.05953573	          0.05000246	          0.11966511	          0.26865494	          0.28753446	          0.17936563	          0.12042232	          0.05000031	          0.06133240	          0.12599650	          0.05000028	          0.10983393	          0.11254082	          0.05002552	          0.05000051	          0.48131956	          0.20690827	          0.21999871	          0.05000025	          0.09494786	          0.10042536	          0.08239997	          0.05680530	          0.05953447	          0.05000049	          0.05000004	          0.05000021	          0.05000028	          0.54748843	          0.31266526	          0.16723944	          0.38627101	          0.49211258	          0.15288605	          0.06494734	          0.11842852	          0.06959051	          0.31880733	          0.07088765	          0.05000045	          0.32302055	          0.13813637	          0.07335792	          0.05000098	          0.05000011	          0.05000008	          0.05000060	          0.07790622	          0.14831978	          0.05000044	          0.05000054	          0.05000061	          0.05000031	          0.26698474	          0.06448805	          0.05000063	          0.05000129	          0.05000061	          0.05000043	          0.28432049	          0.55999222	          0.05000038	          0.05000112	          0.05000019	          0.18347896	          0.11355895	          0.11033952	          0.11072511	          0.19261176	          0.26202845	          0.23535825	          0.18328323	          0.16819869	          0.22474015	          0.05000079	          0.05998947	          0.16264306	          0.05000033	          0.08610170	          0.05000030	          0.05687146	          0.05944582	          0.05304024	
          0.59496207	         -2.91387354	          2.38474707	         -6.26684080	          0.75057799	          0.91665085	          0.00147078	         26.84922383	          4.20038169	         -2.38964189	        -16.15412493	         -1.97791623	          6.53042190	        -11.87808070	        -14.58938813	          3.49940921	         -4.80517450	         -4.52923968	         12.16858619	         -0.17284504	          1.53276046	         -0.86901038	         17.56073896	         -1.42975488	         -0.97231293	          2.31687507	         -7.55570566	        -13.46399850	          6.68046418	          3.88695720	        -13.48892195	         17.67081998	         15.04288814	         38.62142113	         86.51662706	         86.51662706	          0.35140062	          0.34679518	          0.36717571	          0.35460829	          0.21989346	          0.21554801	          0.10093995	          0.08067578	          0.11733155	          0.05000121	          0.05000069	          0.10050041	          0.22562909	          0.24148511	          0.15064010	          0.15622426	          0.05000023	          0.05151009	          0.10581797	          0.21435047	          0.17772043	          0.14756065	          0.05000005	          0.05000006	          0.40423485	          0.17377135	          0.18476546	          0.05000005	          0.12640288	          0.13650866	          0.10164876	          0.05000002	          0.05000006	          0.05000000	          0.05000002	          0.05000009	          0.05000009	          0.61185942	          0.28497662	          0.15130454	          0.54921898	          0.52724305	          0.27655935	          0.08020849	          0.09946185	          0.05844540	          0.26774950	          0.05953481	          0.05000007	          0.27128797	          0.11601348	          0.06160947	          0.05000133	          0.05000015	          0.05000015	          0.05000008	          0.06542943	          0.14435792	          0.12205282	          0.05001403	          0.05000555	          0.05000982	          0.22422654	          0.05954161	          0.05000062	          0.05000164	          0.05000112	          0.05000091	          0.23878575	          0.49883371	          0.05000015	          0.05000055	          0.05000015	          0.15409428	          0.11966521	          0.11966514	          0.10858057	          0.16176442	          0.22006383	          0.19766494	          0.15392990	          0.14126125	          0.18874742	          0.10747471	          0.12563605	          0.13659564	          0.05000107	          0.15514244	          0.05000511	          0.07699649	          0.05000001	          0.05000002	
          0.60640365	         -2.90319068	          2.45926339	         -6.42862563	          0.76824545	          0.91596583	          0.00125034	         26.04951619	          4.44584441	         -2.12250552	        -15.75608651	         -2.24606918	          6.37625259	        -12.38650636	        -16.83522099	          2.99790588	         -5.78015840	         -4.92866189	         13.07855662	         -0.21722914	          0.18060352	         -0.86278709	         19.43362840	         -1.22175864	         -1.18506200	          2.35963464	         -8.40395737	        -13.47201192	          6.59472349	          3.41176689	        -13.50775271	         17.75646887	         14.75194910	         39.72979553	         86.51662706	         86.51662706	          0.44823963	          0.44871655	          0.47266591	          0.31857410	          0.24442369	          0.35323084	          0.08664728	          0.09672552	          0.10173199	          0.05953331	          0.05000022	          0.08440501	          0.18949405	          0.21212291	          0.22581736	          0.18406820	          0.05000018	          0.05000589	          0.10376464	          0.27734933	          0.22184871	          0.19203129	          0.05000007	          0.05000006	          0.33949549	          0.14594141	          0.21137512	          0.05000003	          0.21651730	          0.22569691	          0.17829672	          0.05000002	          0.05000007	          0.05000000	          0.06537367	          0.05954149	          0.05000089	          0.69579739	          0.23933680	          0.12707268	          0.46126006	          0.50695280	          0.31670802	          0.09471578	          0.08353275	          0.05000003	          0.22486870	          0.05000019	          0.05000003	          0.22784050	          0.09743364	          0.05174258	          0.05000102	          0.05000013	          0.05000017	          0.05000005	          0.05495086	          0.16131720	          0.19210326	          0.05000066	          0.05000560	          0.11966679	          0.18831627	          0.05000693	          0.05000018	          0.05000121	          0.05000086	          0.05000065	          0.20054353	          0.44976432	          0.05000006	          0.05000026	          0.05000006	          0.12941563	          0.10050052	          0.10050047	          0.09119111	          0.13585738	          0.18481997	          0.16600832	          0.12927761	          0.11863796	          0.15851905	          0.17993920	          0.12838846	          0.12739398	          0.13578533	          0.21676525	          0.12958016	          0.10482893	          0.05000001	          0.05000002	
